PathFileType	4	(X/Y/Z)	C:/Users/beibeiliu/ov580/test_trc/User3\sequence.29_training_dense_right.trc
DataRate	CameraRate	NumFrames	NumMarkers	Units	OrigDataRate	OrigDataStartFrame	OrigNumFrames
120	120	14	19	mm	120	228	260
Frame#	Time	ThumbCMC			ThumbMCP			ThumbIP			ThumbTip			IndexMCP			IndexPIP			IndexTip			MiddleMCP			MiddlePIP			MiddleTip			RingMCP			RingPIP			RingTip			PinkyMCP			PinkyPIP			PinkyTip			BackHand1			BackHand2			BackHand3	
		X0	Y0	Z0	X1	Y1	Z1	X2	Y2	Z2	X3	Y3	Z3	X4	Y4	Z4	X5	Y5	Z5	X6	Y6	Z6	X7	Y7	Z7	X8	Y8	Z8	X9	Y9	Z9	X10	Y10	Z10	X11	Y11	Z11	X12	Y12	Z12	X13	Y13	Z13	X14	Y14	Z14	X15	Y15	Z15	X16	Y16	Z16	X17	Y17	Z17	X18	Y18	Z18	
227	1.89167	181.683	14.9069	21.5297	155.963	32.8827	3.10319	135.076	40.6175	-15.6401	119.401	48.0184	-26.068	165.354	-7.90634	-54.4129	149.78	1.94675	-78.3776	131.056	7.93379	-92.2956	154.958	-35.506	-52.9996	137.467	-29.9133	-76.2282	109.825	-25.2315	-91.268	131.893	-38.5641	-31.8691	106.309	-25.4975	-31.8669	91.8188	-7.48381	-5.76943	126.346	-45.7077	-10.4849	107.897	-25.9001	-0.440929	114.821	-11.8885	23.1464	178.611	-49.3937	3.48921	193.075	-45.1041	34.1077	198.511	-20.2841	12.0061	
228	1.9	180.143	20.1078	16.9541	156.475	33.7524	3.30666	134.271	39.0995	-16.6075	115.097	45.8981	-29.5176	166.325	-7.53227	-51.387	153.25	0.726877	-75.1043	129.132	11.7611	-92.9657	156.846	-34.7813	-49.2534	137.949	-30.3744	-74.1438	109.055	-21.0769	-91.0546	136.966	-38.3053	-30.0747	104.828	-27.6882	-29.7297	92.0791	-6.98128	-7.32556	126.972	-49.811	-8.57524	108.106	-31.7225	-4.00502	113.507	-9.68691	18.3065	181.863	-47.2852	5.57551	193.625	-43.4903	33.0187	199.372	-15.4135	7.16291	
229	1.90833	178.982	20.3055	20.9312	153.91	30.7343	5.44455	132.431	38.7294	-15.9504	112.876	39.9795	-27.8644	170.397	-5.53775	-52.1443	154.846	1.7706	-76.0002	125.415	9.05624	-89.7486	162.683	-28.7317	-50.9616	138.274	-29.2996	-77.3356	107.581	-18.813	-87.1326	138.069	-37.9845	-35.3785	108.525	-28.2443	-33.2957	95.2632	-13.9639	-11.9022	128.252	-49.2642	-13.8249	111.823	-29.0959	-7.07845	115.631	-13.3911	17.0338	181.517	-47.989	2.68157	195.695	-41.9196	35.3249	200.994	-13.3771	9.9802	
230	1.91667	174.386	16.6725	21.1365	147.623	26.6256	2.57073	127.239	32.7117	-15.669	107.834	25.914	-33.1724	174.791	0.398107	-51.397	157.554	4.74501	-74.6453	129.339	13.5412	-83.4011	168.809	-28.5007	-51.7441	146.091	-23.8481	-79.3056	115.108	-16.1007	-83.8822	147.478	-36.7839	-36.6722	114.46	-30.9626	-36.6766	102.126	-14.349	-11.7838	136.094	-49.2846	-18.9574	114.377	-35.0985	-10.4852	116.725	-21.0828	10.1671	187.673	-45.1707	6.06491	197.102	-42.7458	36.3378	200.159	-8.21564	13.7887	
231	1.925	169.249	22.1607	25.0967	142.271	28.1865	2.72169	122.559	31.8995	-16.6277	107.391	16.6901	-34.7924	177.447	10.3186	-49.8436	155.315	16.3637	-76.1029	125.448	14.9756	-77.9514	175.076	-21.7432	-53.6671	152.218	-18.3312	-80.4287	119.3	-16.0853	-79.6987	154.452	-33.4646	-40.2498	124.701	-31.5208	-43.5407	109.166	-23.3563	-15.7571	145.532	-52.7855	-22.8003	120.177	-38.6377	-14.816	121.306	-22.1491	6.45835	193.257	-37.5466	3.3618	200.124	-38.023	31.8151	199.569	-5.75502	14.0923	
232	1.93333	163.5	19.1853	30.5215	137.098	22.649	7.163	117.656	23.4871	-19.7332	105.434	7.56592	-37.6105	176.2	18.5331	-49.4809	154.52	22.031	-72.498	125.509	17.0678	-72.7575	180.77	-9.87123	-56.563	161.071	-9.53075	-79.7817	120.003	-14.9539	-73.4032	160.995	-31.472	-44.7755	129.162	-29.6431	-44.2012	117.904	-24.0873	-15.1443	155.226	-45.9533	-29.0655	128.573	-38.6081	-19.3112	130.128	-28.8847	3.66635	197.989	-30.3045	-0.506903	203.583	-32.344	35.4701	197.243	7.06498	19.6073	
233	1.94167	155.782	17.4064	33.0042	129.675	20.499	8.36414	113.361	17.5703	-19.646	105.265	1.72818	-37.7702	170.853	27.5901	-41.3475	149.459	29.4578	-70.2157	124.665	17.5296	-68.8364	182.705	6.76789	-51.853	162.674	2.40331	-78.6195	124.851	-11.6787	-71.2735	167.821	-22.4363	-45.4087	139.654	-32.9247	-48.1535	126.869	-32.3349	-14.8938	165.724	-42.7152	-29.7282	136.793	-42.9884	-19.3799	139.478	-37.0127	6.21845	202.811	-19.6479	3.75022	206.635	-21.2517	30.9579	193.103	9.62413	21.8444	
234	1.95	147.988	11.6887	35.8553	125.742	11.7792	7.44837	109.41	9.81324	-19.4819	111.418	-6.59286	-39.315	165.216	32.0075	-41.6178	145.498	31.6451	-67.0016	117.826	14.8151	-65.5124	181.602	12.2977	-47.8912	164.617	9.31369	-76.7387	130.719	-14.3892	-71.1681	171.867	-15.3627	-45.3375	146.672	-32.6083	-51.2494	133.461	-34.3211	-15.8954	172.074	-40.5484	-32.6055	147.04	-43.658	-24.4775	147.071	-38.1536	3.62727	203.263	-8.75844	2.96331	206.266	-13.8273	32.809	185.69	13.9846	23.8096	
235	1.95833	142.174	6.35508	34.1235	120.776	3.87327	10.757	106.765	2.23672	-19.5036	108.899	-11.4418	-41.75	154.141	34.8439	-33.9042	135.736	34.7633	-62.1168	121.031	11.0396	-67.8201	177.227	19.2777	-44.9879	161.529	11.231	-75.824	137.175	-14.2011	-73.893	175.333	-12.4535	-41.9598	154.283	-33.229	-51.5687	142.505	-40.4035	-20.1076	178.107	-32.0617	-31.5852	154.285	-49.0682	-21.591	156.063	-43.3311	3.71546	199.1	0.038569	7.89693	204.091	-8.4482	35.8003	179.211	17.1683	27.1339	
236	1.96667	137.863	-1.6733	37.6189	117.844	-6.64553	14.3155	108.426	-8.49067	-17.7534	113.343	-18.6641	-42.169	147.86	31.5261	-29.5991	127.778	32.4877	-56.1201	111.028	5.36726	-65.2343	171.225	21.6091	-40.8452	158.211	16.9246	-70.8108	138.348	-19.6111	-73.7311	174.263	-10.7008	-43.3401	158.135	-33.4713	-51.6775	147.106	-43.2499	-21.8934	178.659	-29.9164	-33.6596	160.002	-46.3776	-24.8594	159.824	-41.3488	5.89159	198.692	-0.155211	8.18001	201.311	-7.51306	41.0822	172.249	14.4218	29.8018	
237	1.975	134.392	-9.37944	39.2659	114.303	-15.3345	13.4905	106.048	-17.1946	-15.53	111.293	-25.1737	-40.0008	139.874	27.4299	-24.9077	124.385	27.5258	-52.961	110.168	-1.49823	-68.604	164.625	23.1944	-40.2511	153.146	14.2639	-70.3718	137.787	-21.0549	-75.8465	171.842	-8.68706	-43.0958	158.292	-32.0401	-50.9237	152.784	-48.2477	-22.057	182.982	-27.7719	-32.2349	166.718	-51.0082	-25.4476	164.717	-44.1037	2.73808	191.893	6.79834	11.5181	197.47	-2.28714	41.6587	166.785	13.3	35.5073	
238	1.98333	134.291	-18.601	42.8668	117.163	-24.3545	13.584	102.604	-27.0742	-14.4909	107.201	-33.0361	-39.187	133.158	21.8771	-24.7543	113.031	21.854	-49.0396	105.613	-3.64021	-67.6038	158.022	20.9324	-36.8616	149.252	10.3647	-70.2402	138.473	-20.646	-78.2026	170.346	-7.33128	-39.9593	162.553	-34.2444	-51.5541	156.211	-52.2001	-19.5089	186.361	-26.8109	-32.1653	171.089	-47.8851	-29.5734	165.932	-49.4385	1.36001	187.508	7.54365	15.7463	196.884	-4.20511	43.9098	159.843	10.4834	35.753	
239	1.99167	129.58	-24.3859	39.0507	117.291	-32.3661	14.6513	104.429	-37.6377	-13.3711	108.867	-40.9771	-42.2018	124.115	14.6008	-21.6691	109.869	13.7303	-49.4758	102.485	-10.422	-69.795	152.606	15.9286	-36.5006	146.418	8.48229	-67.6969	135.661	-27.9992	-79.4709	170.005	-10.8193	-41.3643	164.045	-39.135	-50.6291	159.91	-59.3431	-22.7108	188.876	-24.017	-29.1778	175.203	-47.5464	-31.3421	171.777	-54.68	0.864771	181.442	5.43477	13.3151	189.031	-1.83196	43.5202	156.114	4.51926	38.1504	
240	2	131.947	-29.4578	40.1379	111.472	-39.6976	13.5906	104.202	-45.5017	-12.1476	104.308	-52.3931	-37.3982	123.813	8.57952	-27.0973	109.006	3.89587	-55.5115	102.241	-17.2162	-70.9892	149.801	9.24849	-39.4327	141.097	-0.371153	-67.0763	135.202	-39.3925	-79.6943	168.368	-14.5487	-38.3253	163.16	-42.8298	-51.3351	159.16	-64.9544	-31.6873	188.345	-27.3107	-32.2261	177.001	-50.827	-33.3117	171.468	-59.345	-5.21432	182.562	2.64139	17.1594	190.502	-2.86793	48.1389	152.608	2.77558	36.093	
